<?xml version="1.0" encoding="iso-8859-1"?>
<!-- Uploaded to: SVG Repo, www.svgrepo.com, Generator: SVG Repo Mixer Tools -->
<svg version="1.1" id="Layer_1" xmlns="http://www.w3.org/2000/svg" xmlns:xlink="http://www.w3.org/1999/xlink" 
	 viewBox="0 0 512 512" xml:space="preserve">
<g>
	<path style="fill:#595E62;" d="M405.865,444.123c0,23.657-19.161,42.819-42.819,42.819c-23.657,0-42.819-19.161-42.819-42.819
		c0-23.657,19.161-42.819,42.819-42.819C386.703,401.304,405.865,420.466,405.865,444.123z"/>
	<path style="fill:#595E62;" d="M148.953,401.304c23.657,0,42.819,19.161,42.819,42.819c0,23.657-19.161,42.819-42.819,42.819
		s-42.819-19.161-42.819-42.819C106.134,420.466,125.296,401.304,148.953,401.304z"/>
</g>
<path style="fill:#009DD3;" d="M63.316,444.123L31.202,192.564h449.595l-32.114,251.559h-42.819
	c0-23.657-19.161-42.819-42.819-42.819c-23.657,0-42.819,19.161-42.819,42.819h-64.228h-64.228
	c0-23.657-19.161-42.819-42.819-42.819s-42.819,19.161-42.819,42.819H63.316z M346.989,363.838v-85.637H165.01v85.637H346.989z"/>
<rect x="165.012" y="278.203" style="fill:#AFB6BB;" width="181.979" height="85.637"/>
<polygon style="fill:#00ABD5;" points="491.502,139.041 502.206,192.564 480.797,192.564 31.202,192.564 9.793,192.564 
	20.497,139.041 41.907,139.041 448.683,139.041 "/>
<polygon style="fill:#595E62;" points="448.683,139.041 41.907,139.041 95.43,96.222 132.896,42.699 207.829,37.346 277.409,53.403 
	336.284,26.642 379.103,69.46 421.922,101.574 "/>
<path style="fill:#088BBB;" d="M165.01,363.838v-85.637h90.989v-85.637H31.202l32.114,251.559h42.819
	c0-23.657,19.161-42.819,42.819-42.819s42.819,19.161,42.819,42.819h64.228v-80.285H165.01z"/>
<polygon style="fill:#0296BB;" points="255.999,139.041 41.907,139.041 20.497,139.041 9.793,192.564 31.202,192.564 
	255.999,192.564 "/>
<path style="fill:#464B4E;" d="M183.606,39.076l-50.709,3.622L95.431,96.222l-53.523,42.819h295.265
	C269.716,119.617,214.977,83.869,183.606,39.076z"/>
<g>
	<rect x="346.991" y="436.097" style="fill:#FFFFFF;" width="32.114" height="16.057"/>
	<rect x="132.898" y="436.097" style="fill:#FFFFFF;" width="32.114" height="16.057"/>
	<rect x="68.67" y="227.356" style="fill:#FFFFFF;" width="294.378" height="16.057"/>
	<rect x="384.457" y="227.356" style="fill:#FFFFFF;" width="37.466" height="16.057"/>
</g>
<path d="M487.866,200.592H512l-13.916-69.58h-45.269l-25.082-35.116L384.378,63.38l-46.35-46.35l-61.464,27.938L208.46,29.252
	l-79.948,5.711l-38.997,55.71l-50.423,40.339H13.916L0,200.592h24.134l32.114,251.559h42.499
	c3.861,24.235,24.902,42.819,50.207,42.819s46.346-18.583,50.207-42.819h56.84h56.84c3.861,24.235,24.902,42.819,50.207,42.819
	c25.305,0,46.346-18.583,50.207-42.819h42.499L487.866,200.592z M101.346,101.77l35.935-51.336l69.917-4.994l71.056,16.397
	l56.287-25.585l39.288,39.288l42.281,31.71l16.971,23.76H64.794L101.346,101.77z M27.08,147.069H484.92l7.493,37.466H19.586
	L27.08,147.069z M148.953,478.913c-19.183,0-34.79-15.606-34.79-34.79c0-19.184,15.607-34.79,34.79-34.79s34.79,15.606,34.79,34.79
	C183.743,463.307,168.137,478.913,148.953,478.913z M363.046,478.913c-19.183,0-34.79-15.606-34.79-34.79
	c0-19.184,15.607-34.79,34.79-34.79s34.79,15.606,34.79,34.79C397.836,463.307,382.23,478.913,363.046,478.913z M413.254,436.094
	c-3.861-24.235-24.902-42.819-50.207-42.819s-46.346,18.583-50.207,42.819h-56.84h-56.84c-3.861-24.235-24.902-42.819-50.207-42.819
	s-46.346,18.583-50.207,42.819H70.385L40.321,200.592h431.358l-30.064,235.502H413.254z"/>
<path d="M156.981,371.867h198.036V270.172H156.982L156.981,371.867L156.981,371.867z M173.038,286.229H338.96v69.58H173.038
	L173.038,286.229L173.038,286.229z"/>
<g>
	<rect x="213.183" y="312.993" style="fill:#FFFFFF;" width="85.637" height="16.057"/>
	<rect x="138.251" y="98.9" style="fill:#FFFFFF;" width="26.762" height="16.057"/>
	<rect x="191.774" y="72.139" style="fill:#FFFFFF;" width="26.762" height="16.057"/>
	<rect x="234.592" y="93.548" style="fill:#FFFFFF;" width="26.762" height="16.057"/>
	<rect x="288.116" y="82.843" style="fill:#FFFFFF;" width="26.762" height="16.057"/>
	<rect x="341.639" y="104.253" style="fill:#FFFFFF;" width="26.762" height="16.057"/>
</g>
</svg>